<?xml version="1.0" encoding="UTF-8" standalone="no"?><!-- Generator: Gravit.io --><svg xmlns="http://www.w3.org/2000/svg" xmlns:xlink="http://www.w3.org/1999/xlink" style="isolation:isolate" viewBox="453.5 203.75 429.25 289.25" width="429.25pt" height="289.25pt"><defs><clipPath id="_clipPath_b86xNFLccO6JEQzCBS2qlycZQIsmtaXw"><rect x="453.5" y="203.75" width="429.25" height="289.25"/></clipPath></defs><g clip-path="url(#_clipPath_b86xNFLccO6JEQzCBS2qlycZQIsmtaXw)"><line x1="633" y1="221.5" x2="543" y2="278" vector-effect="non-scaling-stroke" stroke-width="2" stroke="rgb(0,173,181)" stroke-linejoin="miter" stroke-linecap="square" stroke-miterlimit="3"/><line x1="658" y1="343" x2="721" y2="283.25" vector-effect="non-scaling-stroke" stroke-width="2" stroke="rgb(0,173,181)" stroke-linejoin="miter" stroke-linecap="square" stroke-miterlimit="3"/><line x1="620" y1="409" x2="598" y2="343" vector-effect="non-scaling-stroke" stroke-width="2" stroke="rgb(0,173,181)" stroke-linejoin="miter" stroke-linecap="square" stroke-miterlimit="3"/><line x1="533" y1="409" x2="598" y2="343" vector-effect="non-scaling-stroke" stroke-width="2" stroke="rgb(0,173,181)" stroke-linejoin="miter" stroke-linecap="square" stroke-miterlimit="3"/><line x1="598" y1="343" x2="543" y2="283.25" vector-effect="non-scaling-stroke" stroke-width="2" stroke="rgb(0,173,181)" stroke-linejoin="miter" stroke-linecap="square" stroke-miterlimit="3"/><line x1="800" y1="343" x2="721" y2="283.25" vector-effect="non-scaling-stroke" stroke-width="2" stroke="rgb(0,173,181)" stroke-linejoin="miter" stroke-linecap="square" stroke-miterlimit="3"/><line x1="866" y1="409" x2="800" y2="343" vector-effect="non-scaling-stroke" stroke-width="2" stroke="rgb(0,173,181)" stroke-linejoin="miter" stroke-linecap="square" stroke-miterlimit="3"/><line x1="469" y1="343" x2="543" y2="283.25" vector-effect="non-scaling-stroke" stroke-width="2" stroke="rgb(0,173,181)" stroke-linejoin="miter" stroke-linecap="square" stroke-miterlimit="3"/><line x1="714" y1="413" x2="658" y2="343" vector-effect="non-scaling-stroke" stroke-width="2" stroke="rgb(0,173,181)" stroke-linejoin="miter" stroke-linecap="square" stroke-miterlimit="3"/><line x1="652" y1="476" x2="620" y2="409" vector-effect="non-scaling-stroke" stroke-width="2" stroke="rgb(0,173,181)" stroke-linejoin="miter" stroke-linecap="square" stroke-miterlimit="3"/><line x1="765" y1="409" x2="800" y2="343" vector-effect="non-scaling-stroke" stroke-width="2" stroke="rgb(0,173,181)" stroke-linejoin="miter" stroke-linecap="square" stroke-miterlimit="3"/><line x1="721" y1="283.25" x2="633" y2="221.5" vector-effect="non-scaling-stroke" stroke-width="2" stroke="rgb(0,173,181)" stroke-linejoin="miter" stroke-linecap="square" stroke-miterlimit="3"/><circle vector-effect="non-scaling-stroke" cx="634.5" cy="221.49999999999997" r="17.75" fill="rgb(57,62,70)"/><text transform="matrix(1,0,0,1,626.25,229.877)" style="font-family:'Open Sans';font-weight:400;font-size:20px;font-style:normal;fill:#ffffff;stroke:none;">D</text><circle vector-effect="non-scaling-stroke" cx="544" cy="278.5" r="17.75" fill="rgb(57,62,70)"/><text transform="matrix(1,0,0,1,536.5,287.627)" style="font-family:'Open Sans';font-weight:400;font-size:20px;font-style:normal;fill:#ffffff;stroke:none;">A</text><circle vector-effect="non-scaling-stroke" cx="531" cy="410.74999952316284" r="17.75" fill="rgb(57,62,70)"/><text transform="matrix(1,0,0,1,523.5,419.877)" style="font-family:'Open Sans';font-weight:400;font-size:20px;font-style:normal;fill:#ffffff;stroke:none;">G </text><circle vector-effect="non-scaling-stroke" cx="659.5" cy="342" r="17.75" fill="rgb(57,62,70)"/><circle vector-effect="non-scaling-stroke" cx="799.5" cy="342.00000000000006" r="17.75" fill="rgb(57,62,70)"/><circle vector-effect="non-scaling-stroke" cx="722" cy="278.5" r="17.75" fill="rgb(57,62,70)"/><text transform="matrix(1,0,0,1,714.5,287.627)" style="font-family:'Open Sans';font-weight:400;font-size:20px;font-style:normal;fill:#ffffff;stroke:none;">B</text><circle vector-effect="non-scaling-stroke" cx="471.25" cy="340.75000381469727" r="17.75" fill="rgb(57,62,70)"/><text transform="matrix(1,0,0,1,463.75,349.877)" style="font-family:'Open Sans';font-weight:400;font-size:20px;font-style:normal;fill:#ffffff;stroke:none;">C </text><circle vector-effect="non-scaling-stroke" cx="619.9375000000003" cy="410.74999952316284" r="17.75" fill="rgb(57,62,70)"/><circle vector-effect="non-scaling-stroke" cx="764" cy="410.74999952316284" r="17.75" fill="rgb(57,62,70)"/><circle vector-effect="non-scaling-stroke" cx="599" cy="340.75000381469727" r="17.75" fill="rgb(57,62,70)"/><circle vector-effect="non-scaling-stroke" cx="714.25" cy="410.74999952316284" r="17.75" fill="rgb(57,62,70)"/><text transform="matrix(1,0,0,1,789,348.877)" style="font-family:'Open Sans';font-weight:400;font-size:20px;font-style:normal;fill:#ffffff;stroke:none;">M</text><text transform="matrix(1,0,0,1,652,351.127)" style="font-family:'Open Sans';font-weight:400;font-size:20px;font-style:normal;fill:#ffffff;stroke:none;">F </text><text transform="matrix(1,0,0,1,612.438,419.877)" style="font-family:'Open Sans';font-weight:400;font-size:20px;font-style:normal;fill:#ffffff;stroke:none;">P </text><text transform="matrix(1,0,0,1,589.938,348.877)" style="font-family:'Open Sans';font-weight:400;font-size:20px;font-style:normal;fill:#ffffff;stroke:none;">K </text><circle vector-effect="non-scaling-stroke" cx="864.9999923706055" cy="406.25" r="17.75" fill="rgb(57,62,70)"/><text transform="matrix(1,0,0,1,856.625,414.377)" style="font-family:'Open Sans';font-weight:400;font-size:20px;font-style:normal;fill:#ffffff;stroke:none;">H</text><text transform="matrix(1,0,0,1,706.125,419.877)" style="font-family:'Open Sans';font-weight:400;font-size:20px;font-style:normal;fill:#ffffff;stroke:none;">O</text><text transform="matrix(1,0,0,1,759.813,419.877)" style="font-family:'Open Sans';font-weight:400;font-size:20px;font-style:normal;fill:#ffffff;stroke:none;">I</text><circle vector-effect="non-scaling-stroke" cx="652.375" cy="475.2499990463257" r="17.75" fill="rgb(57,62,70)"/><text transform="matrix(1,0,0,1,643.5,484.377)" style="font-family:'Open Sans';font-weight:400;font-size:20px;font-style:normal;fill:#ffffff;stroke:none;">L</text></g></svg>