<?xml version="1.0" encoding="UTF-8" standalone="no"?><!-- Generator: Gravit.io --><svg xmlns="http://www.w3.org/2000/svg" xmlns:xlink="http://www.w3.org/1999/xlink" style="isolation:isolate" viewBox="410 -360 300 220" width="300pt" height="220pt"><defs><clipPath id="_clipPath_p9dIi0yEXVCWvOCZEwSISWWRXWtUovGY"><rect x="410" y="-360" width="300" height="220"/></clipPath></defs><g clip-path="url(#_clipPath_p9dIi0yEXVCWvOCZEwSISWWRXWtUovGY)"><line x1="640" y1="-319" x2="556" y2="-335" vector-effect="non-scaling-stroke" stroke-width="2" stroke="rgb(0,173,181)" stroke-linejoin="miter" stroke-linecap="square" stroke-miterlimit="3"/><path d=" M 563.092 -339.408 L 550.92 -335.968 L 560.975 -328.294 Z " fill="rgb(0,173,181)" stroke="none"/><line x1="429" y1="-289" x2="671" y2="-229" vector-effect="non-scaling-stroke" stroke-width="2" stroke="rgb(0,173,181)" stroke-linejoin="miter" stroke-linecap="square" stroke-miterlimit="3"/><path d=" M 666.068 -224.395 L 678.41 -227.163 L 668.79 -235.376 Z " fill="rgb(0,173,181)" stroke="none"/><line x1="640" y1="-319" x2="477" y2="-222" vector-effect="non-scaling-stroke" stroke-width="2" stroke="rgb(0,173,181)" stroke-linejoin="miter" stroke-linecap="square" stroke-miterlimit="3"/><path d=" M 476.74 -228.428 L 469.91 -217.781 L 482.525 -218.705 Z " fill="rgb(0,173,181)" stroke="none"/><line x1="460" y1="-194" x2="542.227" y2="-169" vector-effect="non-scaling-stroke" stroke-width="2" stroke="rgb(0,173,181)" stroke-linejoin="miter" stroke-linecap="square" stroke-miterlimit="3"/><path d=" M 538.475 -164.228 L 550.945 -166.349 L 541.766 -175.053 Z " fill="rgb(0,173,181)" stroke="none"/><line x1="569" y1="-159" x2="545" y2="-319" vector-effect="non-scaling-stroke" stroke-width="2" stroke="rgb(0,173,181)" stroke-linejoin="miter" stroke-linecap="square" stroke-miterlimit="3"/><path d=" M 551.432 -314.252 L 544.16 -324.602 L 540.244 -312.574 Z " fill="rgb(0,173,181)" stroke="none"/><line x1="689" y1="-208" x2="595" y2="-167" vector-effect="non-scaling-stroke" stroke-width="2" stroke="rgb(0,173,181)" stroke-linejoin="miter" stroke-linecap="square" stroke-miterlimit="3"/><path d=" M 597.804 -174.394 L 589.695 -164.686 L 602.327 -164.024 Z " fill="rgb(0,173,181)" stroke="none"/><line x1="460" y1="-203" x2="663" y2="-217" vector-effect="non-scaling-stroke" stroke-width="2" stroke="rgb(0,173,181)" stroke-linejoin="miter" stroke-linecap="square" stroke-miterlimit="3"/><path d=" M 659.104 -211.061 L 670.002 -217.483 L 658.326 -222.348 Z " fill="rgb(0,173,181)" stroke="none"/><line x1="530" y1="-341" x2="454" y2="-300" vector-effect="non-scaling-stroke" stroke-width="2" stroke="rgb(0,173,181)" stroke-linejoin="miter" stroke-linecap="square" stroke-miterlimit="3"/><path d=" M 457.045 -308.07 L 449.773 -297.72 L 462.416 -298.113 Z " fill="rgb(0,173,181)" stroke="none"/><circle vector-effect="non-scaling-stroke" cx="530" cy="-340.00000000000006" r="20.000000000000085" fill="rgb(57,62,70)"/><text transform="matrix(1,0,0,1,523,-333.164)" style="font-family:'Roboto';font-weight:400;font-size:20px;font-style:normal;fill:#ffffff;stroke:none;">1</text><circle vector-effect="non-scaling-stroke" cx="570.0000000000002" cy="-159.99999999999991" r="20.000000000000114" fill="rgb(57,62,70)"/><circle vector-effect="non-scaling-stroke" cx="460.00000000000006" cy="-200.00000000000003" r="20.000000000000057" fill="rgb(57,62,70)"/><circle vector-effect="non-scaling-stroke" cx="689.9999999999998" cy="-210.0000000000001" r="20.000000000000114" fill="rgb(57,62,70)"/><circle vector-effect="non-scaling-stroke" cx="430" cy="-290" r="20.000000000000057" fill="rgb(57,62,70)"/><circle vector-effect="non-scaling-stroke" cx="639.9999999999999" cy="-320" r="20.000000000000114" fill="rgb(57,62,70)"/><text transform="matrix(1,0,0,1,682,-202.136)" style="font-family:'Roboto';font-weight:400;font-size:20px;font-style:normal;fill:#ffffff;stroke:none;">3</text><text transform="matrix(1,0,0,1,562.5,-154.945)" style="font-family:'Roboto';font-weight:400;font-size:20px;font-style:normal;fill:#ffffff;stroke:none;">4</text><text transform="matrix(1,0,0,1,452.25,-192.445)" style="font-family:'Roboto';font-weight:400;font-size:20px;font-style:normal;fill:#ffffff;stroke:none;">5</text><text transform="matrix(1,0,0,1,423,-281.445)" style="font-family:'Roboto';font-weight:400;font-size:20px;font-style:normal;fill:#ffffff;stroke:none;">6</text><text transform="matrix(1,0,0,1,632.075,-313.086)" style="font-family:'Roboto';font-weight:400;font-size:20px;font-style:normal;fill:#ffffff;stroke:none;">2</text><text transform="matrix(1,0.024,-0.024,1,495.528,-332.281)" style="font-family:'Roboto';font-weight:400;font-size:12px;font-style:normal;fill:#000000;stroke:none;">3 </text><text transform="matrix(1,0.032,-0.032,1,608.888,-331.543)" style="font-family:'Roboto';font-weight:400;font-size:12px;font-style:normal;fill:#000000;stroke:none;">8 </text><text transform="matrix(1,0,0,1,608.766,-307.867)" style="font-family:'Roboto';font-weight:400;font-size:12px;font-style:normal;fill:#000000;stroke:none;">1 </text><text transform="matrix(0.994,0.111,-0.111,0.994,459.63,-286.002)" style="font-family:'Roboto';font-weight:400;font-size:12px;font-style:normal;fill:#000000;stroke:none;">1 </text><text transform="matrix(0.956,-0.293,0.293,0.956,651.349,-199.13)" style="font-family:'Roboto';font-weight:400;font-size:12px;font-style:normal;fill:#000000;stroke:none;">5 </text><text transform="matrix(0.972,-0.237,0.237,0.972,567.517,-184.168)" style="font-family:'Roboto';font-weight:400;font-size:12px;font-style:normal;fill:#000000;stroke:none;">3 </text><text transform="matrix(0.967,0.256,-0.256,0.967,485.27,-192.007)" style="font-family:'Roboto';font-weight:400;font-size:12px;font-style:normal;fill:#000000;stroke:none;">2 </text><text transform="matrix(0.999,-0.05,0.05,0.999,484.837,-209.097)" style="font-family:'Roboto';font-weight:400;font-size:12px;font-style:normal;fill:#000000;stroke:none;">2 </text></g></svg>