<?xml version="1.0" encoding="utf-8"?>
<!-- Generator: Adobe Illustrator 24.1.1, SVG Export Plug-In . SVG Version: 6.00 Build 0)  -->
<svg version="1.1" id="Layer_1" focusable="false" xmlns="http://www.w3.org/2000/svg" xmlns:xlink="http://www.w3.org/1999/xlink"
	 x="0px" y="0px" viewBox="0 0 511.9 512" style="enable-background:new 0 0 511.9 512;" xml:space="preserve">
<path d="M490.9,176.2L167.7,499.4L56.4,511.7c-32.2,3.6-59.7-23.6-56.1-56.1l12.3-111.3L335.8,21.1C364-7,409.5-7,437.6,21.1
	l53.2,53.2C518.9,102.5,518.9,148.1,490.9,176.2L490.9,176.2z M369.3,214.2l-71.5-71.5L69.1,371.5l-9,80.4l80.4-9L369.3,214.2z
	 M449,116.1L395.9,63c-5-5-13.3-5-18.2,0l-38,38l71.5,71.5l38-38C454.1,129.3,454.1,121.2,449,116.1z"/>
</svg>
