<?xml version="1.0" encoding="utf-8"?>
<!-- Generator: Adobe Illustrator 24.1.1, SVG Export Plug-In . SVG Version: 6.00 Build 0)  -->
<svg version="1.1" id="Layer_1" focusable="false" xmlns="http://www.w3.org/2000/svg" xmlns:xlink="http://www.w3.org/1999/xlink"
	 x="0px" y="0px" viewBox="0 0 512.1 512" style="enable-background:new 0 0 512.1 512;" xml:space="preserve">
<path d="M298.7,102.3l111,111c4.7,4.7,4.7,12.3,0,17L140.9,499.2L26.6,511.8c-15.3,1.7-28.2-11.2-26.5-26.5l12.7-114.2l268.8-268.8
	C286.4,97.6,294,97.6,298.7,102.3L298.7,102.3z M498.1,74.1L438,14c-18.7-18.7-49.1-18.7-68,0l-43.6,43.6c-4.7,4.7-4.7,12.3,0,17
	l111,111c4.7,4.7,12.3,4.7,17,0l43.6-43.6C516.8,123.2,516.8,92.8,498.1,74.1z"/>
</svg>
