<?xml version="1.0" encoding="UTF-8" standalone="no"?><!-- Generator: Gravit.io --><svg xmlns="http://www.w3.org/2000/svg" xmlns:xlink="http://www.w3.org/1999/xlink" style="isolation:isolate" viewBox="395.5 175.5 353 276" width="353pt" height="276pt"><defs><clipPath id="_clipPath_IqWLIlBkuTkLfdzzB6hlACXneBJLmrDL"><rect x="395.5" y="175.5" width="353" height="276"/></clipPath></defs><g clip-path="url(#_clipPath_IqWLIlBkuTkLfdzzB6hlACXneBJLmrDL)"><line x1="636" y1="387" x2="599" y2="421" vector-effect="non-scaling-stroke" stroke-width="2" stroke="rgb(0,173,181)" stroke-linejoin="miter" stroke-linecap="square" stroke-miterlimit="3"/><line x1="639" y1="387" x2="679" y2="421" vector-effect="non-scaling-stroke" stroke-width="2" stroke="rgb(0,173,181)" stroke-linejoin="miter" stroke-linecap="square" stroke-miterlimit="3"/><line x1="630" y1="262" x2="668" y2="295" vector-effect="non-scaling-stroke" stroke-width="2" stroke="rgb(0,173,181)" stroke-linejoin="miter" stroke-linecap="square" stroke-miterlimit="3"/><line x1="623" y1="238" x2="570" y2="198" vector-effect="non-scaling-stroke" stroke-width="2" stroke="rgb(0,173,181)" stroke-linejoin="miter" stroke-linecap="square" stroke-miterlimit="3"/><line x1="412" y1="363" x2="445" y2="316" vector-effect="non-scaling-stroke" stroke-width="2" stroke="rgb(0,173,181)" stroke-linejoin="miter" stroke-linecap="square" stroke-miterlimit="3"/><line x1="599" y1="298" x2="623" y2="262" vector-effect="non-scaling-stroke" stroke-width="2" stroke="rgb(0,173,181)" stroke-linejoin="miter" stroke-linecap="square" stroke-miterlimit="3"/><line x1="599" y1="319" x2="636" y2="363" vector-effect="non-scaling-stroke" stroke-width="2" stroke="rgb(0,173,181)" stroke-linejoin="miter" stroke-linecap="square" stroke-miterlimit="3"/><line x1="683.705" y1="317.75" x2="720.705" y2="361.75" vector-effect="non-scaling-stroke" stroke-width="2" stroke="rgb(0,173,181)" stroke-linejoin="miter" stroke-linecap="square" stroke-miterlimit="3"/><line x1="454" y1="295" x2="486" y2="256" vector-effect="non-scaling-stroke" stroke-width="2" stroke="rgb(0,173,181)" stroke-linejoin="miter" stroke-linecap="square" stroke-miterlimit="3"/><line x1="527" y1="295" x2="503" y2="256" vector-effect="non-scaling-stroke" stroke-width="2" stroke="rgb(0,173,181)" stroke-linejoin="miter" stroke-linecap="square" stroke-miterlimit="3"/><line x1="557" y1="363" x2="592" y2="319" vector-effect="non-scaling-stroke" stroke-width="2" stroke="rgb(0,173,181)" stroke-linejoin="miter" stroke-linecap="square" stroke-miterlimit="3"/><line x1="551" y1="198" x2="499" y2="241" vector-effect="non-scaling-stroke" stroke-width="2" stroke="rgb(0,173,181)" stroke-linejoin="miter" stroke-linecap="square" stroke-miterlimit="3"/><path d=" M 543.5 193.25 C 543.5 183.454 551.454 175.5 561.25 175.5 C 571.046 175.5 579 183.454 579 193.25 C 579 203.046 571.046 211 561.25 211 C 551.454 211 543.5 203.046 543.5 193.25 Z  M 560.869 187.34 L 560.869 201.627 L 559.053 201.627 L 559.053 189.586 L 555.41 190.924 L 555.41 189.283 L 560.586 187.34 L 560.869 187.34 Z " fill-rule="evenodd" fill="rgb(57,62,70)"/><path d=" M 476 249.5 C 476 239.704 483.954 231.75 493.75 231.75 C 503.546 231.75 511.5 239.704 511.5 249.5 C 511.5 259.296 503.546 267.25 493.75 267.25 C 483.954 267.25 476 259.296 476 249.5 Z  M 496.611 257.123 L 496.611 258.627 L 487.227 258.627 L 487.227 257.23 L 490.986 253.451 L 490.986 253.451 Q 492.705 251.713 493.252 250.971 L 493.252 250.971 L 493.252 250.971 Q 493.799 250.229 494.072 249.525 L 494.072 249.525 L 494.072 249.525 Q 494.346 248.822 494.346 248.012 L 494.346 248.012 L 494.346 248.012 Q 494.346 246.869 493.652 246.2 L 493.652 246.2 L 493.652 246.2 Q 492.959 245.531 491.729 245.531 L 491.729 245.531 L 491.729 245.531 Q 490.84 245.531 490.044 245.824 L 490.044 245.824 L 490.044 245.824 Q 489.248 246.117 488.271 246.889 L 488.271 246.889 L 487.412 245.785 L 487.412 245.785 Q 489.385 244.145 491.709 244.145 L 491.709 244.145 L 491.709 244.145 Q 493.721 244.145 494.863 245.175 L 494.863 245.175 L 494.863 245.175 Q 496.006 246.205 496.006 247.943 L 496.006 247.943 L 496.006 247.943 Q 496.006 249.301 495.244 250.629 L 495.244 250.629 L 495.244 250.629 Q 494.482 251.957 492.393 253.988 L 492.393 253.988 L 489.268 257.045 L 489.268 257.123 L 496.611 257.123 Z " fill-rule="evenodd" fill="rgb(57,62,70)"/><path d=" M 395.5 373.5 C 395.5 363.704 403.454 355.75 413.25 355.75 C 423.046 355.75 431 363.704 431 373.5 C 431 383.296 423.046 391.25 413.25 391.25 C 403.454 391.25 395.5 383.296 395.5 373.5 Z  M 408.367 378.773 L 408.367 378.773 L 408.367 378.773 Q 408.367 379.945 409.183 380.6 L 409.183 380.6 L 409.183 380.6 Q 409.998 381.254 411.473 381.254 L 411.473 381.254 L 411.473 381.254 Q 412.928 381.254 413.738 380.57 L 413.738 380.57 L 413.738 380.57 Q 414.549 379.887 414.549 378.695 L 414.549 378.695 L 414.549 378.695 Q 414.549 377.748 413.787 377.011 L 413.787 377.011 L 413.787 377.011 Q 413.025 376.273 411.131 375.58 L 411.131 375.58 L 411.131 375.58 Q 409.676 376.205 409.021 376.962 L 409.021 376.962 L 409.021 376.962 Q 408.367 377.719 408.367 378.773 L 408.367 378.773 Z  M 411.434 369.213 L 411.434 369.213 L 411.434 369.213 Q 410.213 369.213 409.52 369.799 L 409.52 369.799 L 409.52 369.799 Q 408.826 370.385 408.826 371.361 L 408.826 371.361 L 408.826 371.361 Q 408.826 372.26 409.402 372.904 L 409.402 372.904 L 409.402 372.904 Q 409.979 373.549 411.531 374.193 L 411.531 374.193 L 411.531 374.193 Q 412.928 373.607 413.509 372.934 L 413.509 372.934 L 413.509 372.934 Q 414.09 372.26 414.09 371.361 L 414.09 371.361 L 414.09 371.361 Q 414.09 370.375 413.382 369.794 L 413.382 369.794 L 413.382 369.794 Q 412.674 369.213 411.434 369.213 L 411.434 369.213 Z  M 411.453 367.895 L 411.453 367.895 L 411.453 367.895 Q 413.406 367.895 414.549 368.803 L 414.549 368.803 L 414.549 368.803 Q 415.691 369.711 415.691 371.313 L 415.691 371.313 L 415.691 371.313 Q 415.691 372.367 415.037 373.236 L 415.037 373.236 L 415.037 373.236 Q 414.383 374.105 412.947 374.818 L 412.947 374.818 L 412.947 374.818 Q 414.686 375.648 415.418 376.562 L 415.418 376.562 L 415.418 376.562 Q 416.15 377.475 416.15 378.676 L 416.15 378.676 L 416.15 378.676 Q 416.15 380.453 414.91 381.513 L 414.91 381.513 L 414.91 381.513 Q 413.67 382.572 411.512 382.572 L 411.512 382.572 L 411.512 382.572 Q 409.227 382.572 407.996 381.571 L 407.996 381.571 L 407.996 381.571 Q 406.766 380.57 406.766 378.734 L 406.766 378.734 L 406.766 378.734 Q 406.766 376.283 409.754 374.916 L 409.754 374.916 L 409.754 374.916 Q 408.406 374.154 407.82 373.271 L 407.82 373.271 L 407.82 373.271 Q 407.234 372.387 407.234 371.293 L 407.234 371.293 L 407.234 371.293 Q 407.234 369.74 408.382 368.817 L 408.382 368.817 L 408.382 368.817 Q 409.529 367.895 411.453 367.895 L 411.453 367.895 Z " fill-rule="evenodd" fill="rgb(57,62,70)"/><path d=" M 508 305.25 C 508 295.454 515.954 287.5 525.75 287.5 C 535.546 287.5 543.5 295.454 543.5 305.25 C 543.5 315.046 535.546 323 525.75 323 C 515.954 323 508 315.046 508 305.25 Z  M 523.689 305.656 L 523.689 305.656 L 523.689 305.656 Q 525.945 305.656 527.239 306.774 L 527.239 306.774 L 527.239 306.774 Q 528.533 307.893 528.533 309.836 L 528.533 309.836 L 528.533 309.836 Q 528.533 312.053 527.122 313.313 L 527.122 313.313 L 527.122 313.313 Q 525.711 314.572 523.23 314.572 L 523.23 314.572 L 523.23 314.572 Q 520.818 314.572 519.549 313.801 L 519.549 313.801 L 519.549 312.238 L 519.549 312.238 Q 520.232 312.678 521.248 312.927 L 521.248 312.927 L 521.248 312.927 Q 522.264 313.176 523.25 313.176 L 523.25 313.176 L 523.25 313.176 Q 524.969 313.176 525.921 312.365 L 525.921 312.365 L 525.921 312.365 Q 526.873 311.555 526.873 310.021 L 526.873 310.021 L 526.873 310.021 Q 526.873 307.033 523.211 307.033 L 523.211 307.033 L 523.211 307.033 Q 522.283 307.033 520.73 307.316 L 520.73 307.316 L 519.891 306.779 L 520.428 300.1 L 527.527 300.1 L 527.527 301.594 L 521.814 301.594 L 521.453 305.881 L 521.453 305.881 Q 522.576 305.656 523.689 305.656 Z " fill-rule="evenodd" fill="rgb(57,62,70)"/><path d=" M 431 305.25 C 431 295.454 438.954 287.5 448.75 287.5 C 458.546 287.5 466.5 295.454 466.5 305.25 C 466.5 315.046 458.546 323 448.75 323 C 438.954 323 431 315.046 431 305.25 Z  M 443.041 309.621 L 448.363 309.621 L 448.363 304.875 L 448.363 304.875 Q 448.363 303.479 448.461 301.721 L 448.461 301.721 L 448.383 301.721 L 448.383 301.721 Q 447.914 302.658 447.504 303.273 L 447.504 303.273 L 443.041 309.621 L 443.041 309.621 Z  M 452.035 309.621 L 452.035 311.096 L 449.916 311.096 L 449.916 314.377 L 448.363 314.377 L 448.363 311.096 L 441.42 311.096 L 441.42 309.68 L 448.197 300.021 L 449.916 300.021 L 449.916 309.621 L 452.035 309.621 L 452.035 309.621 Z " fill-rule="evenodd" fill="rgb(57,62,70)"/><path d=" M 607 249.5 C 607 239.704 614.954 231.75 624.75 231.75 C 634.546 231.75 642.5 239.704 642.5 249.5 C 642.5 259.296 634.546 267.25 624.75 267.25 C 614.954 267.25 607 259.296 607 249.5 Z  M 627.074 247.709 L 627.074 247.709 L 627.074 247.709 Q 627.074 249.076 626.308 249.945 L 626.308 249.945 L 626.308 249.945 Q 625.541 250.814 624.135 251.107 L 624.135 251.107 L 624.135 251.186 L 624.135 251.186 Q 625.854 251.4 626.684 252.279 L 626.684 252.279 L 626.684 252.279 Q 627.514 253.158 627.514 254.584 L 627.514 254.584 L 627.514 254.584 Q 627.514 256.625 626.098 257.724 L 626.098 257.724 L 626.098 257.724 Q 624.682 258.822 622.074 258.822 L 622.074 258.822 L 622.074 258.822 Q 620.941 258.822 619.999 258.651 L 619.999 258.651 L 619.999 258.651 Q 619.057 258.48 618.168 258.051 L 618.168 258.051 L 618.168 256.508 L 618.168 256.508 Q 619.096 256.967 620.146 257.206 L 620.146 257.206 L 620.146 257.206 Q 621.195 257.445 622.133 257.445 L 622.133 257.445 L 622.133 257.445 Q 625.834 257.445 625.834 254.545 L 625.834 254.545 L 625.834 254.545 Q 625.834 251.947 621.752 251.947 L 621.752 251.947 L 620.346 251.947 L 620.346 250.551 L 621.771 250.551 L 621.771 250.551 Q 623.441 250.551 624.418 249.813 L 624.418 249.813 L 624.418 249.813 Q 625.395 249.076 625.395 247.768 L 625.395 247.768 L 625.395 247.768 Q 625.395 246.723 624.677 246.127 L 624.677 246.127 L 624.677 246.127 Q 623.959 245.531 622.729 245.531 L 622.729 245.531 L 622.729 245.531 Q 621.791 245.531 620.961 245.785 L 620.961 245.785 L 620.961 245.785 Q 620.131 246.039 619.066 246.723 L 619.066 246.723 L 618.246 245.629 L 618.246 245.629 Q 619.125 244.936 620.272 244.54 L 620.272 244.54 L 620.272 244.54 Q 621.42 244.145 622.689 244.145 L 622.689 244.145 L 622.689 244.145 Q 624.77 244.145 625.922 245.097 L 625.922 245.097 L 625.922 245.097 Q 627.074 246.049 627.074 247.709 Z " fill-rule="evenodd" fill="rgb(57,62,70)"/><path d=" M 617 373.5 C 617 363.704 624.954 355.75 634.75 355.75 C 644.546 355.75 652.5 363.704 652.5 373.5 C 652.5 383.296 644.546 391.25 634.75 391.25 C 624.954 391.25 617 383.296 617 373.5 Z  M 629.107 368.35 L 629.107 382.627 L 627.525 382.627 L 627.525 372.451 L 627.525 372.451 Q 627.525 371.182 627.604 370.049 L 627.604 370.049 L 627.604 370.049 Q 627.398 370.254 627.145 370.479 L 627.145 370.479 L 627.145 370.479 Q 626.891 370.703 624.82 372.383 L 624.82 372.383 L 623.961 371.27 L 627.74 368.35 L 629.107 368.35 L 629.107 368.35 Z  M 636.197 375.469 L 636.197 375.469 L 636.197 375.469 Q 636.197 378.584 636.93 380.005 L 636.93 380.005 L 636.93 380.005 Q 637.662 381.426 639.264 381.426 L 639.264 381.426 L 639.264 381.426 Q 640.885 381.426 641.612 379.985 L 641.612 379.985 L 641.612 379.985 Q 642.34 378.545 642.34 375.469 L 642.34 375.469 L 642.34 375.469 Q 642.34 372.393 641.612 370.962 L 641.612 370.962 L 641.612 370.962 Q 640.885 369.531 639.264 369.531 L 639.264 369.531 L 639.264 369.531 Q 637.662 369.531 636.93 370.942 L 636.93 370.942 L 636.93 370.942 Q 636.197 372.354 636.197 375.469 L 636.197 375.469 Z  M 644 375.469 L 644 375.469 L 644 375.469 Q 644 379.17 642.833 380.996 L 642.833 380.996 L 642.833 380.996 Q 641.666 382.822 639.264 382.822 L 639.264 382.822 L 639.264 382.822 Q 636.959 382.822 635.758 380.952 L 635.758 380.952 L 635.758 380.952 Q 634.557 379.082 634.557 375.469 L 634.557 375.469 L 634.557 375.469 Q 634.557 371.738 635.719 369.932 L 635.719 369.932 L 635.719 369.932 Q 636.881 368.125 639.264 368.125 L 639.264 368.125 L 639.264 368.125 Q 641.588 368.125 642.794 370.01 L 642.794 370.01 L 642.794 370.01 Q 644 371.895 644 375.469 L 644 375.469 Z " fill-rule="evenodd" fill="rgb(57,62,70)"/><path d=" M 577.5 305.25 C 577.5 295.454 585.454 287.5 595.25 287.5 C 605.046 287.5 613 295.454 613 305.25 C 613 315.046 605.046 323 595.25 323 C 585.454 323 577.5 315.046 577.5 305.25 Z  M 593.688 313.195 L 593.688 313.195 L 593.688 313.195 Q 595.074 313.195 595.841 312.321 L 595.841 312.321 L 595.841 312.321 Q 596.607 311.447 596.607 309.797 L 596.607 309.797 L 596.607 309.797 Q 596.607 308.381 595.895 307.57 L 595.895 307.57 L 595.895 307.57 Q 595.182 306.76 593.766 306.76 L 593.766 306.76 L 593.766 306.76 Q 592.887 306.76 592.154 307.121 L 592.154 307.121 L 592.154 307.121 Q 591.422 307.482 590.987 308.117 L 590.987 308.117 L 590.987 308.117 Q 590.553 308.752 590.553 309.436 L 590.553 309.436 L 590.553 309.436 Q 590.553 310.441 590.943 311.311 L 590.943 311.311 L 590.943 311.311 Q 591.334 312.18 592.052 312.688 L 592.052 312.688 L 592.052 312.688 Q 592.77 313.195 593.688 313.195 L 593.688 313.195 Z  M 588.893 308.273 L 588.893 308.273 L 588.893 308.273 Q 588.893 304.064 590.528 301.979 L 590.528 301.979 L 590.528 301.979 Q 592.164 299.895 595.367 299.895 L 595.367 299.895 L 595.367 299.895 Q 596.471 299.895 597.105 300.08 L 597.105 300.08 L 597.105 301.477 L 597.105 301.477 Q 596.354 301.232 595.387 301.232 L 595.387 301.232 L 595.387 301.232 Q 593.092 301.232 591.881 302.663 L 591.881 302.663 L 591.881 302.663 Q 590.67 304.094 590.553 307.16 L 590.553 307.16 L 590.67 307.16 L 590.67 307.16 Q 591.744 305.48 594.068 305.48 L 594.068 305.48 L 594.068 305.48 Q 595.992 305.48 597.101 306.643 L 597.101 306.643 L 597.101 306.643 Q 598.209 307.805 598.209 309.797 L 598.209 309.797 L 598.209 309.797 Q 598.209 312.023 596.993 313.298 L 596.993 313.298 L 596.993 313.298 Q 595.777 314.572 593.707 314.572 L 593.707 314.572 L 593.707 314.572 Q 591.49 314.572 590.191 312.907 L 590.191 312.907 L 590.191 312.907 Q 588.893 311.242 588.893 308.273 L 588.893 308.273 Z " fill-rule="evenodd" fill="rgb(57,62,70)"/><path d=" M 652.5 305.25 C 652.5 295.454 660.454 287.5 670.25 287.5 C 680.046 287.5 688 295.454 688 305.25 C 688 315.046 680.046 323 670.25 323 C 660.454 323 652.5 315.046 652.5 305.25 Z  M 667.33 314.877 L 665.533 314.877 L 671.451 302.094 L 663.668 302.094 L 663.668 300.6 L 673.17 300.6 L 673.17 301.898 L 667.33 314.877 Z " fill-rule="evenodd" fill="rgb(57,62,70)"/><path d=" M 539 373.5 C 539 363.704 546.954 355.75 556.75 355.75 C 566.546 355.75 574.5 363.704 574.5 373.5 C 574.5 383.296 566.546 391.25 556.75 391.25 C 546.954 391.25 539 383.296 539 373.5 Z  M 554.807 369.531 L 554.807 369.531 L 554.807 369.531 Q 553.41 369.531 552.648 370.43 L 552.648 370.43 L 552.648 370.43 Q 551.887 371.328 551.887 372.93 L 551.887 372.93 L 551.887 372.93 Q 551.887 374.336 552.59 375.142 L 552.59 375.142 L 552.59 375.142 Q 553.293 375.947 554.729 375.947 L 554.729 375.947 L 554.729 375.947 Q 555.617 375.947 556.364 375.586 L 556.364 375.586 L 556.364 375.586 Q 557.111 375.225 557.541 374.6 L 557.541 374.6 L 557.541 374.6 Q 557.971 373.975 557.971 373.291 L 557.971 373.291 L 557.971 373.291 Q 557.971 372.266 557.57 371.396 L 557.57 371.396 L 557.57 371.396 Q 557.17 370.527 556.452 370.029 L 556.452 370.029 L 556.452 370.029 Q 555.734 369.531 554.807 369.531 L 554.807 369.531 Z  M 559.611 374.443 L 559.611 374.443 L 559.611 374.443 Q 559.611 382.822 553.127 382.822 L 553.127 382.822 L 553.127 382.822 Q 551.994 382.822 551.33 382.627 L 551.33 382.627 L 551.33 381.23 L 551.33 381.23 Q 552.111 381.484 553.107 381.484 L 553.107 381.484 L 553.107 381.484 Q 555.451 381.484 556.647 380.034 L 556.647 380.034 L 556.647 380.034 Q 557.844 378.584 557.951 375.586 L 557.951 375.586 L 557.834 375.586 L 557.834 375.586 Q 557.297 376.396 556.408 376.821 L 556.408 376.821 L 556.408 376.821 Q 555.52 377.246 554.406 377.246 L 554.406 377.246 L 554.406 377.246 Q 552.512 377.246 551.398 376.113 L 551.398 376.113 L 551.398 376.113 Q 550.285 374.98 550.285 372.949 L 550.285 372.949 L 550.285 372.949 Q 550.285 370.723 551.53 369.434 L 551.53 369.434 L 551.53 369.434 Q 552.775 368.145 554.807 368.145 L 554.807 368.145 L 554.807 368.145 Q 556.262 368.145 557.351 368.892 L 557.351 368.892 L 557.351 368.892 Q 558.439 369.639 559.025 371.069 L 559.025 371.069 L 559.025 371.069 Q 559.611 372.5 559.611 374.443 L 559.611 374.443 Z " fill-rule="evenodd" fill="rgb(57,62,70)"/><path d=" M 581.5 433.75 C 581.5 423.954 589.454 416 599.25 416 C 609.046 416 617 423.954 617 433.75 C 617 443.546 609.046 451.5 599.25 451.5 C 589.454 451.5 581.5 443.546 581.5 433.75 Z  M 592.482 428.6 L 592.482 442.877 L 590.9 442.877 L 590.9 432.701 L 590.9 432.701 Q 590.9 431.432 590.979 430.299 L 590.979 430.299 L 590.979 430.299 Q 590.773 430.504 590.52 430.729 L 590.52 430.729 L 590.52 430.729 Q 590.266 430.953 588.195 432.633 L 588.195 432.633 L 587.336 431.52 L 591.115 428.6 L 592.482 428.6 L 592.482 428.6 Z  M 603.918 428.6 L 603.918 442.877 L 602.336 442.877 L 602.336 432.701 L 602.336 432.701 Q 602.336 431.432 602.414 430.299 L 602.414 430.299 L 602.414 430.299 Q 602.209 430.504 601.955 430.729 L 601.955 430.729 L 601.955 430.729 Q 601.701 430.953 599.631 432.633 L 599.631 432.633 L 598.771 431.52 L 602.551 428.6 L 603.918 428.6 L 603.918 428.6 Z " fill-rule="evenodd" fill="rgb(57,62,70)"/><path d=" M 713 373.5 C 713 363.704 720.954 355.75 730.75 355.75 C 740.546 355.75 748.5 363.704 748.5 373.5 C 748.5 383.296 740.546 391.25 730.75 391.25 C 720.954 391.25 713 383.296 713 373.5 Z  M 725.107 368.35 L 725.107 382.627 L 723.525 382.627 L 723.525 372.451 L 723.525 372.451 Q 723.525 371.182 723.604 370.049 L 723.604 370.049 L 723.604 370.049 Q 723.398 370.254 723.145 370.479 L 723.145 370.479 L 723.145 370.479 Q 722.891 370.703 720.82 372.383 L 720.82 372.383 L 719.961 371.27 L 723.74 368.35 L 725.107 368.35 L 725.107 368.35 Z  M 739.385 371.709 L 739.385 371.709 L 739.385 371.709 Q 739.385 373.076 738.618 373.945 L 738.618 373.945 L 738.618 373.945 Q 737.852 374.814 736.445 375.107 L 736.445 375.107 L 736.445 375.186 L 736.445 375.186 Q 738.164 375.4 738.994 376.279 L 738.994 376.279 L 738.994 376.279 Q 739.824 377.158 739.824 378.584 L 739.824 378.584 L 739.824 378.584 Q 739.824 380.625 738.408 381.724 L 738.408 381.724 L 738.408 381.724 Q 736.992 382.822 734.385 382.822 L 734.385 382.822 L 734.385 382.822 Q 733.252 382.822 732.31 382.651 L 732.31 382.651 L 732.31 382.651 Q 731.367 382.48 730.479 382.051 L 730.479 382.051 L 730.479 380.508 L 730.479 380.508 Q 731.406 380.967 732.456 381.206 L 732.456 381.206 L 732.456 381.206 Q 733.506 381.445 734.443 381.445 L 734.443 381.445 L 734.443 381.445 Q 738.145 381.445 738.145 378.545 L 738.145 378.545 L 738.145 378.545 Q 738.145 375.947 734.063 375.947 L 734.063 375.947 L 732.656 375.947 L 732.656 374.551 L 734.082 374.551 L 734.082 374.551 Q 735.752 374.551 736.729 373.813 L 736.729 373.813 L 736.729 373.813 Q 737.705 373.076 737.705 371.768 L 737.705 371.768 L 737.705 371.768 Q 737.705 370.723 736.987 370.127 L 736.987 370.127 L 736.987 370.127 Q 736.27 369.531 735.039 369.531 L 735.039 369.531 L 735.039 369.531 Q 734.102 369.531 733.271 369.785 L 733.271 369.785 L 733.271 369.785 Q 732.441 370.039 731.377 370.723 L 731.377 370.723 L 730.557 369.629 L 730.557 369.629 Q 731.436 368.936 732.583 368.54 L 732.583 368.54 L 732.583 368.54 Q 733.73 368.145 735 368.145 L 735 368.145 L 735 368.145 Q 737.08 368.145 738.232 369.097 L 738.232 369.097 L 738.232 369.097 Q 739.385 370.049 739.385 371.709 L 739.385 371.709 Z " fill-rule="evenodd" fill="rgb(57,62,70)"/><path d=" M 662 433.75 C 662 423.954 669.954 416 679.75 416 C 689.546 416 697.5 423.954 697.5 433.75 C 697.5 443.546 689.546 451.5 679.75 451.5 C 669.954 451.5 662 443.546 662 433.75 Z  M 674.107 428.6 L 674.107 442.877 L 672.525 442.877 L 672.525 432.701 L 672.525 432.701 Q 672.525 431.432 672.604 430.299 L 672.604 430.299 L 672.604 430.299 Q 672.398 430.504 672.145 430.729 L 672.145 430.729 L 672.145 430.729 Q 671.891 430.953 669.82 432.633 L 669.82 432.633 L 668.961 431.52 L 672.74 428.6 L 674.107 428.6 L 674.107 428.6 Z  M 688.922 441.373 L 688.922 442.877 L 679.537 442.877 L 679.537 441.48 L 683.297 437.701 L 683.297 437.701 Q 685.016 435.963 685.563 435.221 L 685.563 435.221 L 685.563 435.221 Q 686.109 434.479 686.383 433.775 L 686.383 433.775 L 686.383 433.775 Q 686.656 433.072 686.656 432.262 L 686.656 432.262 L 686.656 432.262 Q 686.656 431.119 685.963 430.45 L 685.963 430.45 L 685.963 430.45 Q 685.27 429.781 684.039 429.781 L 684.039 429.781 L 684.039 429.781 Q 683.15 429.781 682.354 430.074 L 682.354 430.074 L 682.354 430.074 Q 681.559 430.367 680.582 431.139 L 680.582 431.139 L 679.723 430.035 L 679.723 430.035 Q 681.695 428.395 684.02 428.395 L 684.02 428.395 L 684.02 428.395 Q 686.031 428.395 687.174 429.425 L 687.174 429.425 L 687.174 429.425 Q 688.316 430.455 688.316 432.193 L 688.316 432.193 L 688.316 432.193 Q 688.316 433.551 687.555 434.879 L 687.555 434.879 L 687.555 434.879 Q 686.793 436.207 684.703 438.238 L 684.703 438.238 L 681.578 441.295 L 681.578 441.373 L 688.922 441.373 L 688.922 441.373 Z " fill-rule="evenodd" fill="rgb(57,62,70)"/></g></svg>