<?xml version="1.0" encoding="UTF-8" standalone="no"?><!-- Generator: Gravit.io --><svg xmlns="http://www.w3.org/2000/svg" xmlns:xlink="http://www.w3.org/1999/xlink" style="isolation:isolate" viewBox="364 162.989 413.5 284.511" width="413.5pt" height="284.511pt"><defs><clipPath id="_clipPath_dmrMpDzlyLlsxktm1WPClZgPxNToldmg"><rect x="364" y="162.989" width="413.5" height="284.511"/></clipPath></defs><g clip-path="url(#_clipPath_dmrMpDzlyLlsxktm1WPClZgPxNToldmg)"><line x1="555" y1="179" x2="646" y2="241" vector-effect="non-scaling-stroke" stroke-width="2" stroke="rgb(0,173,181)" stroke-linejoin="miter" stroke-linecap="square" stroke-miterlimit="3"/><line x1="763" y1="369" x2="705" y2="296" vector-effect="non-scaling-stroke" stroke-width="2" stroke="rgb(0,173,181)" stroke-linejoin="miter" stroke-linecap="square" stroke-miterlimit="3"/><line x1="642" y1="369" x2="595" y2="301" vector-effect="non-scaling-stroke" stroke-width="2" stroke="rgb(0,173,181)" stroke-linejoin="miter" stroke-linecap="square" stroke-miterlimit="3"/><line x1="468" y1="241" x2="507" y2="296" vector-effect="non-scaling-stroke" stroke-width="2" stroke="rgb(0,173,181)" stroke-linejoin="miter" stroke-linecap="square" stroke-miterlimit="3"/><line x1="468" y1="241" x2="428" y2="296" vector-effect="non-scaling-stroke" stroke-width="2" stroke="rgb(0,173,181)" stroke-linejoin="miter" stroke-linecap="square" stroke-miterlimit="3"/><line x1="601" y1="301" x2="560" y2="364" vector-effect="non-scaling-stroke" stroke-width="2" stroke="rgb(0,173,181)" stroke-linejoin="miter" stroke-linecap="square" stroke-miterlimit="3"/><line x1="705" y1="301" x2="646" y2="245" vector-effect="non-scaling-stroke" stroke-width="2" stroke="rgb(0,173,181)" stroke-linejoin="miter" stroke-linecap="square" stroke-miterlimit="3"/><line x1="646" y1="369" x2="691" y2="431" vector-effect="non-scaling-stroke" stroke-width="2" stroke="rgb(0,173,181)" stroke-linejoin="miter" stroke-linecap="square" stroke-miterlimit="3"/><line x1="468" y1="241" x2="555" y2="179" vector-effect="non-scaling-stroke" stroke-width="2" stroke="rgb(0,173,181)" stroke-linejoin="miter" stroke-linecap="square" stroke-miterlimit="3"/><line x1="595" y1="301" x2="646" y2="241" vector-effect="non-scaling-stroke" stroke-width="2" stroke="rgb(0,173,181)" stroke-linejoin="miter" stroke-linecap="square" stroke-miterlimit="3"/><line x1="642" y1="369" x2="601" y2="431" vector-effect="non-scaling-stroke" stroke-width="2" stroke="rgb(0,173,181)" stroke-linejoin="miter" stroke-linecap="square" stroke-miterlimit="3"/><line x1="381" y1="369" x2="421" y2="301" vector-effect="non-scaling-stroke" stroke-width="2" stroke="rgb(0,173,181)" stroke-linejoin="miter" stroke-linecap="square" stroke-miterlimit="3"/><circle vector-effect="non-scaling-stroke" cx="554.284090909091" cy="180.73864017833353" r="17.75" fill="rgb(57,62,70)"/><circle vector-effect="non-scaling-stroke" cx="559.409100445834" cy="367.7500000000001" r="17.75" fill="rgb(57,62,70)"/><circle vector-effect="non-scaling-stroke" cx="511.5" cy="298.25" r="17.75000000000003" fill="rgb(57,62,70)"/><circle vector-effect="non-scaling-stroke" cx="759.75" cy="367.7500000000001" r="17.75" fill="rgb(57,62,70)"/><circle vector-effect="non-scaling-stroke" cx="420.1590909090909" cy="298.25" r="17.75" fill="rgb(57,62,70)"/><circle vector-effect="non-scaling-stroke" cx="701.6590909090909" cy="298.25" r="17.75" fill="rgb(57,62,70)"/><circle vector-effect="non-scaling-stroke" cx="467.9090985384854" cy="241.23864065517074" r="17.75" fill="rgb(57,62,70)"/><circle vector-effect="non-scaling-stroke" cx="381.75" cy="367.75000000000006" r="17.75" fill="rgb(57,62,70)"/><circle vector-effect="non-scaling-stroke" cx="600.5" cy="298.25" r="17.75" fill="rgb(57,62,70)"/><circle vector-effect="non-scaling-stroke" cx="687.25" cy="429.75" r="17.75" fill="rgb(57,62,70)"/><circle vector-effect="non-scaling-stroke" cx="641.7840909090909" cy="367.75000000000006" r="17.75" fill="rgb(57,62,70)"/><circle vector-effect="non-scaling-stroke" cx="603.1590928164395" cy="429.75" r="17.75" fill="rgb(57,62,70)"/><text transform="matrix(1,0,0,1,593.5,307.377)" style="font-family:'Open Sans';font-weight:400;font-size:20px;font-style:normal;fill:#ffffff;stroke:none;">6 </text><text transform="matrix(1,0,0,1,412.659,307.377)" style="font-family:'Open Sans';font-weight:400;font-size:20px;font-style:normal;fill:#ffffff;stroke:none;">4 </text><text transform="matrix(1,0,0,1,694.159,307.377)" style="font-family:'Open Sans';font-weight:400;font-size:20px;font-style:normal;fill:#ffffff;stroke:none;">7 </text><text transform="matrix(1,0,0,1,552.5,376.877)" style="font-family:'Open Sans';font-weight:400;font-size:20px;font-style:normal;fill:#ffffff;stroke:none;">9 </text><text transform="matrix(1,0,0,1,590.534,438.877)" style="font-family:'Open Sans';font-weight:400;font-size:20px;font-style:normal;fill:#ffffff;stroke:none;">11 </text><text transform="matrix(1,0,0,1,747.125,376.877)" style="font-family:'Open Sans';font-weight:400;font-size:20px;font-style:normal;fill:#ffffff;stroke:none;">13 </text><text transform="matrix(1,0,0,1,674.625,438.877)" style="font-family:'Open Sans';font-weight:400;font-size:20px;font-style:normal;fill:#ffffff;stroke:none;">12 </text><circle vector-effect="non-scaling-stroke" cx="644.5340909090909" cy="241.23864065517074" r="17.75" fill="rgb(57,62,70)"/><text transform="matrix(1,0,0,1,629.375,376.877)" style="font-family:'Open Sans';font-weight:400;font-size:20px;font-style:normal;fill:#ffffff;stroke:none;">10 </text><text transform="matrix(1,0,0,1,460.5,250.491)" style="font-family:'Open Sans';font-weight:400;font-size:20px;font-style:normal;fill:#ffffff;stroke:none;">2 </text><text transform="matrix(1,0,0,1,547.5,188.616)" style="font-family:'Open Sans';font-weight:400;font-size:20px;font-style:normal;fill:#ffffff;stroke:none;">1 </text><text transform="matrix(1,0,0,1,504,307.377)" style="font-family:'Open Sans';font-weight:400;font-size:20px;font-style:normal;fill:#ffffff;stroke:none;">5 </text><text transform="matrix(1,0,0,1,638.5,250.127)" style="font-family:'Open Sans';font-weight:400;font-size:20px;font-style:normal;fill:#ffffff;stroke:none;">3 </text><text transform="matrix(1,0,0,1,374.25,376.877)" style="font-family:'Open Sans';font-weight:400;font-size:20px;font-style:normal;fill:#ffffff;stroke:none;">8 </text></g></svg>