<?xml version="1.0" encoding="UTF-8" standalone="no"?><!-- Generator: Gravit.io --><svg xmlns="http://www.w3.org/2000/svg" xmlns:xlink="http://www.w3.org/1999/xlink" style="isolation:isolate" viewBox="366.5 39.25 489.5 322.5" width="489.5pt" height="322.5pt"><defs><clipPath id="_clipPath_R5yEBIeQJKsiVvvwFbtrdDfbZZSD3PWh"><rect x="366.5" y="39.25" width="489.5" height="322.5"/></clipPath></defs><g clip-path="url(#_clipPath_R5yEBIeQJKsiVvvwFbtrdDfbZZSD3PWh)"><line x1="564" y1="199" x2="512" y2="282" vector-effect="non-scaling-stroke" stroke-width="2" stroke="rgb(0,173,181)" stroke-linejoin="miter" stroke-linecap="square" stroke-miterlimit="3"/><line x1="709" y1="286" x2="634" y2="202" vector-effect="non-scaling-stroke" stroke-width="2" stroke="rgb(0,173,181)" stroke-linejoin="miter" stroke-linecap="square" stroke-miterlimit="3"/><line x1="480" y1="196" x2="480" y2="133" vector-effect="non-scaling-stroke" stroke-width="2" stroke="rgb(0,173,181)" stroke-linejoin="miter" stroke-linecap="square" stroke-miterlimit="3"/><line x1="587" y1="133" x2="587" y2="58" vector-effect="non-scaling-stroke" stroke-width="2" stroke="rgb(0,173,181)" stroke-linejoin="miter" stroke-linecap="square" stroke-miterlimit="3"/><line x1="367" y1="355" x2="639" y2="355" vector-effect="non-scaling-stroke" stroke-width="1" stroke="rgb(57,62,70)" stroke-linejoin="miter" stroke-linecap="square" stroke-miterlimit="3"/><line x1="480" y1="133" x2="587" y2="58" vector-effect="non-scaling-stroke" stroke-width="2" stroke="rgb(0,173,181)" stroke-linejoin="miter" stroke-linecap="square" stroke-miterlimit="3"/><line x1="564" y1="199" x2="587" y2="133" vector-effect="non-scaling-stroke" stroke-width="2" stroke="rgb(0,173,181)" stroke-linejoin="miter" stroke-linecap="square" stroke-miterlimit="3"/><line x1="639" y1="286" x2="634" y2="202" vector-effect="non-scaling-stroke" stroke-width="2" stroke="rgb(0,173,181)" stroke-linejoin="miter" stroke-linecap="square" stroke-miterlimit="3"/><line x1="776" y1="282" x2="634" y2="202" vector-effect="non-scaling-stroke" stroke-width="2" stroke="rgb(0,173,181)" stroke-linejoin="miter" stroke-linecap="square" stroke-miterlimit="3"/><line x1="634" y1="202" x2="587" y2="133" vector-effect="non-scaling-stroke" stroke-width="2" stroke="rgb(0,173,181)" stroke-linejoin="miter" stroke-linecap="square" stroke-miterlimit="3"/><line x1="367" y1="66" x2="587" y2="66" vector-effect="non-scaling-stroke" stroke-width="1" stroke="rgb(57,62,70)" stroke-linejoin="miter" stroke-linecap="square" stroke-miterlimit="3"/><line x1="480" y1="143" x2="367" y2="143" vector-effect="non-scaling-stroke" stroke-width="1" stroke="rgb(57,62,70)" stroke-linejoin="miter" stroke-linecap="square" stroke-miterlimit="3"/><line x1="367" y1="207" x2="480" y2="207" vector-effect="non-scaling-stroke" stroke-width="1" stroke="rgb(57,62,70)" stroke-linejoin="miter" stroke-linecap="square" stroke-miterlimit="3"/><line x1="512" y1="286" x2="367" y2="286" vector-effect="non-scaling-stroke" stroke-width="1" stroke="rgb(57,62,70)" stroke-linejoin="miter" stroke-linecap="square" stroke-miterlimit="3"/><line x1="685" y1="133" x2="587" y2="58" vector-effect="non-scaling-stroke" stroke-width="2" stroke="rgb(0,173,181)" stroke-linejoin="miter" stroke-linecap="square" stroke-miterlimit="3"/><line x1="639" y1="344" x2="639" y2="286" vector-effect="non-scaling-stroke" stroke-width="2" stroke="rgb(0,173,181)" stroke-linejoin="miter" stroke-linecap="square" stroke-miterlimit="3"/><line x1="573" y1="282" x2="634" y2="202" vector-effect="non-scaling-stroke" stroke-width="2" stroke="rgb(0,173,181)" stroke-linejoin="miter" stroke-linecap="square" stroke-miterlimit="3"/><circle vector-effect="non-scaling-stroke" cx="588.75" cy="56.99999999999999" r="17.75" fill="rgb(57,62,70)"/><text transform="matrix(1,0,0,1,581.25,65.377)" style="font-family:'Roboto';font-weight:400;font-size:20px;font-style:normal;fill:#ffffff;stroke:none;">1 </text><circle vector-effect="non-scaling-stroke" cx="481.75" cy="131" r="17.75" fill="rgb(57,62,70)"/><text transform="matrix(1,0,0,1,474.25,140.127)" style="font-family:'Open Sans';font-weight:400;font-size:20px;font-style:normal;fill:#ffffff;stroke:none;">2 </text><circle vector-effect="non-scaling-stroke" cx="513.25" cy="280" r="17.75" fill="rgb(57,62,70)"/><text transform="matrix(1,0,0,1,505.75,288.877)" style="font-family:'Open Sans';font-weight:400;font-size:20px;font-style:normal;fill:#ffffff;stroke:none;">8 </text><text transform="matrix(1,0,0,1,567.25,291.877)" style="font-family:'Roboto';font-weight:400;font-size:20px;font-style:normal;fill:#ffffff;stroke:none;">1 </text><text transform="matrix(1,0,0,1,567.25,291.877)" style="font-family:'Roboto';font-weight:400;font-size:20px;font-style:normal;fill:#ffffff;stroke:none;">1 </text><circle vector-effect="non-scaling-stroke" cx="633.875" cy="199.25000000000003" r="17.75" fill="rgb(57,62,70)"/><circle vector-effect="non-scaling-stroke" cx="565.5000000000001" cy="197.75" r="17.75" fill="rgb(57,62,70)"/><circle vector-effect="non-scaling-stroke" cx="481.75" cy="198.50000000000003" r="17.75" fill="rgb(57,62,70)"/><text transform="matrix(1,0,0,1,474.25,207.627)" style="font-family:'Open Sans';font-weight:400;font-size:20px;font-style:normal;fill:#ffffff;stroke:none;">5 </text><circle vector-effect="non-scaling-stroke" cx="686.5" cy="131.75" r="17.75" fill="rgb(57,62,70)"/><text transform="matrix(1,0,0,1,679,140.877)" style="font-family:'Open Sans';font-weight:400;font-size:20px;font-style:normal;fill:#ffffff;stroke:none;">4 </text><circle vector-effect="non-scaling-stroke" cx="587" cy="131" r="17.75" fill="rgb(57,62,70)"/><text transform="matrix(1,0,0,1,579.5,140.127)" style="font-family:'Open Sans';font-weight:400;font-size:20px;font-style:normal;fill:#ffffff;stroke:none;">3 </text><circle vector-effect="non-scaling-stroke" cx="573.0000000000001" cy="282.75" r="17.75" fill="rgb(57,62,70)"/><circle vector-effect="non-scaling-stroke" cx="772.75" cy="282.75" r="17.75" fill="rgb(57,62,70)"/><circle vector-effect="non-scaling-stroke" cx="707.75" cy="282.75" r="17.75" fill="rgb(57,62,70)"/><circle vector-effect="non-scaling-stroke" cx="639" cy="282.75" r="17.75" fill="rgb(57,62,70)"/><text transform="matrix(1,0,0,1,626.375,291.877)" style="font-family:'Open Sans';font-weight:400;font-size:20px;font-style:normal;fill:#ffffff;stroke:none;">10 </text><circle vector-effect="non-scaling-stroke" cx="639" cy="344.00000000000006" r="17.75" fill="rgb(57,62,70)"/><text transform="matrix(1,0,0,1,558,206.877)" style="font-family:'Open Sans';font-weight:400;font-size:20px;font-style:normal;fill:#ffffff;stroke:none;">6 </text><text transform="matrix(1,0,0,1,626.375,208.877)" style="font-family:'Open Sans';font-weight:400;font-size:20px;font-style:normal;fill:#ffffff;stroke:none;">7 </text><text transform="matrix(1,0,0,1,565.5,291.877)" style="font-family:'Open Sans';font-weight:400;font-size:20px;font-style:normal;fill:#ffffff;stroke:none;">9 </text><text transform="matrix(1,0,0,1,694,291.877)" style="font-family:'Open Sans';font-weight:400;font-size:20px;font-style:normal;fill:#ffffff;stroke:none;">11 </text><text transform="matrix(1,0,0,1,626.375,353.127)" style="font-family:'Open Sans';font-weight:400;font-size:20px;font-style:normal;fill:#ffffff;stroke:none;">13 </text><text transform="matrix(1,0,0,1,760.125,291.877)" style="font-family:'Open Sans';font-weight:400;font-size:20px;font-style:normal;fill:#ffffff;stroke:none;">12 </text><text transform="matrix(1,0,0,1,367,62.488)" style="font-family:'Roboto';font-weight:400;font-size:14px;font-style:normal;fill:#000000;stroke:none;">1. szint</text><text transform="matrix(1,0,0,1,367,139.238)" style="font-family:'Roboto';font-weight:400;font-size:14px;font-style:normal;fill:#000000;stroke:none;">2. szint</text><text transform="matrix(1,0,0,1,367,202.238)" style="font-family:'Roboto';font-weight:400;font-size:14px;font-style:normal;fill:#000000;stroke:none;">3. szint</text><text transform="matrix(1,0,0,1,367,281.988)" style="font-family:'Roboto';font-weight:400;font-size:14px;font-style:normal;fill:#000000;stroke:none;">4. szint</text><text transform="matrix(1,0,0,1,367,352.238)" style="font-family:'Roboto';font-weight:400;font-size:14px;font-style:normal;fill:#000000;stroke:none;">5. szint</text><line x1="855" y1="282" x2="795" y2="282" vector-effect="non-scaling-stroke" stroke-width="2" stroke="rgb(0,0,0)" stroke-linejoin="miter" stroke-linecap="square" stroke-miterlimit="3"/><path d=" M 805.054 274.929 L 790.912 282 L 805.054 289.071 Z " fill="rgb(0,0,0)" stroke="none"/><line x1="756" y1="58" x2="613" y2="58" vector-effect="non-scaling-stroke" stroke-width="2" stroke="rgb(0,0,0)" stroke-linejoin="miter" stroke-linecap="square" stroke-miterlimit="3"/><path d=" M 620.782 50.929 L 606.64 58 L 620.782 65.071 Z " fill="rgb(0,0,0)" stroke="none"/><text transform="matrix(1,0,0,1,715.25,52.238)" style="font-family:'Roboto';font-weight:400;font-size:14px;font-style:normal;fill:#000000;stroke:none;">gyökér</text><text transform="matrix(1,0,0,1,822.5,274.988)" style="font-family:'Roboto';font-weight:400;font-size:14px;font-style:normal;fill:#000000;stroke:none;">levél</text></g></svg>