<?xml version="1.0" encoding="utf-8"?>
<!-- Generator: Adobe Illustrator 24.1.1, SVG Export Plug-In . SVG Version: 6.00 Build 0)  -->
<svg version="1.1" id="Layer_1" xmlns="http://www.w3.org/2000/svg" xmlns:xlink="http://www.w3.org/1999/xlink" x="0px" y="0px"
	 viewBox="0 0 100 100" style="enable-background:new 0 0 100 100;" xml:space="preserve">
<style type="text/css">
	.st0{opacity:0.2;}
	.st1{fill:none;stroke:#707070;stroke-width:2;stroke-linecap:round;stroke-miterlimit:10;}
	
		.st2{fill:none;stroke:#707070;stroke-width:2;stroke-linecap:round;stroke-miterlimit:10;stroke-dasharray:7.7778,11.1111,6.6667,7.7778;}
</style>
<g class="st0">
	<g>
		<g>
			<line class="st1" x1="50" y1="50" x2="45" y2="50"/>
			<line class="st2" x1="38.3" y1="50" x2="8.9" y2="50"/>
			<line class="st1" x1="5" y1="50" x2="0" y2="50"/>
		</g>
	</g>
	<g>
		<g>
			<line class="st1" x1="50" y1="50" x2="50" y2="45"/>
			<line class="st2" x1="50" y1="38.3" x2="50" y2="8.9"/>
			<line class="st1" x1="50" y1="5" x2="50" y2="0"/>
		</g>
	</g>
	<g>
		<g>
			<line class="st1" x1="50" y1="100" x2="50" y2="95"/>
			<line class="st2" x1="50" y1="88.3" x2="50" y2="58.9"/>
			<polyline class="st1" points="50,55 50,50 55,50 			"/>
			<line class="st2" x1="61.7" y1="50" x2="91.1" y2="50"/>
			<line class="st1" x1="95" y1="50" x2="100" y2="50"/>
		</g>
	</g>
	<g>
		<g>
			<line class="st1" x1="0" y1="50" x2="5" y2="50"/>
			<line class="st2" x1="11.7" y1="50" x2="41.1" y2="50"/>
			<polyline class="st1" points="45,50 50,50 50,55 			"/>
			<line class="st2" x1="50" y1="61.7" x2="50" y2="91.1"/>
			<line class="st1" x1="50" y1="95" x2="50" y2="100"/>
		</g>
	</g>
</g>
</svg>
