<?xml version="1.0" encoding="UTF-8" standalone="no"?><!-- Generator: Gravit.io --><svg xmlns="http://www.w3.org/2000/svg" xmlns:xlink="http://www.w3.org/1999/xlink" style="isolation:isolate" viewBox="371 197.75 563.5 281.75" width="563.5pt" height="281.75pt"><defs><clipPath id="_clipPath_ppnpdGUUUPrhfEMccEnTVknN6xXFR0fo"><rect x="371" y="197.75" width="563.5" height="281.75"/></clipPath></defs><g clip-path="url(#_clipPath_ppnpdGUUUPrhfEMccEnTVknN6xXFR0fo)"><line x1="812" y1="332" x2="764" y2="382" vector-effect="non-scaling-stroke" stroke-width="2" stroke="rgb(0,173,181)" stroke-linejoin="miter" stroke-linecap="square" stroke-miterlimit="3"/><line x1="712" y1="464" x2="768" y2="386" vector-effect="non-scaling-stroke" stroke-width="2" stroke="rgb(0,173,181)" stroke-linejoin="miter" stroke-linecap="square" stroke-miterlimit="3"/><line x1="812" y1="332" x2="738" y2="276" vector-effect="non-scaling-stroke" stroke-width="2" stroke="rgb(0,173,181)" stroke-linejoin="miter" stroke-linecap="square" stroke-miterlimit="3"/><line x1="436" y1="340" x2="522" y2="276" vector-effect="non-scaling-stroke" stroke-width="2" stroke="rgb(0,173,181)" stroke-linejoin="miter" stroke-linecap="square" stroke-miterlimit="3"/><line x1="581" y1="336" x2="534" y2="412" vector-effect="non-scaling-stroke" stroke-width="2" stroke="rgb(0,173,181)" stroke-linejoin="miter" stroke-linecap="square" stroke-miterlimit="3"/><line x1="436" y1="340" x2="477" y2="412" vector-effect="non-scaling-stroke" stroke-width="2" stroke="rgb(0,173,181)" stroke-linejoin="miter" stroke-linecap="square" stroke-miterlimit="3"/><line x1="436" y1="340" x2="389" y2="412" vector-effect="non-scaling-stroke" stroke-width="2" stroke="rgb(0,173,181)" stroke-linejoin="miter" stroke-linecap="square" stroke-miterlimit="3"/><line x1="534" y1="412" x2="581" y2="464" vector-effect="non-scaling-stroke" stroke-width="2" stroke="rgb(0,173,181)" stroke-linejoin="miter" stroke-linecap="square" stroke-miterlimit="3"/><line x1="869" y1="382" x2="812" y2="332" vector-effect="non-scaling-stroke" stroke-width="2" stroke="rgb(0,173,181)" stroke-linejoin="miter" stroke-linecap="square" stroke-miterlimit="3"/><line x1="661" y1="332" x2="738" y2="276" vector-effect="non-scaling-stroke" stroke-width="2" stroke="rgb(0,173,181)" stroke-linejoin="miter" stroke-linecap="square" stroke-miterlimit="3"/><line x1="738" y1="276" x2="630" y2="218" vector-effect="non-scaling-stroke" stroke-width="2" stroke="rgb(0,173,181)" stroke-linejoin="miter" stroke-linecap="square" stroke-miterlimit="3"/><line x1="581" y1="340" x2="522" y2="276" vector-effect="non-scaling-stroke" stroke-width="2" stroke="rgb(0,173,181)" stroke-linejoin="miter" stroke-linecap="square" stroke-miterlimit="3"/><line x1="522" y1="276" x2="630" y2="218" vector-effect="non-scaling-stroke" stroke-width="2" stroke="rgb(0,173,181)" stroke-linejoin="miter" stroke-linecap="square" stroke-miterlimit="3"/><line x1="834" y1="464" x2="869" y2="382" vector-effect="non-scaling-stroke" stroke-width="2" stroke="rgb(0,173,181)" stroke-linejoin="miter" stroke-linecap="square" stroke-miterlimit="3"/><line x1="917" y1="464" x2="869" y2="382" vector-effect="non-scaling-stroke" stroke-width="2" stroke="rgb(0,173,181)" stroke-linejoin="miter" stroke-linecap="square" stroke-miterlimit="3"/><circle vector-effect="non-scaling-stroke" cx="629.0000000000002" cy="215.4999923706055" r="17.75" fill="rgb(57,62,70)"/><circle vector-effect="non-scaling-stroke" cx="735.75" cy="273.00000047683716" r="17.75" fill="rgb(57,62,70)"/><circle vector-effect="non-scaling-stroke" cx="388.75" cy="407.75" r="17.75" fill="rgb(57,62,70)"/><text transform="matrix(1,0,0,1,621.5,224.627)" style="font-family:'Open Sans';font-weight:400;font-size:20px;font-style:normal;fill:#ffffff;stroke:none;">8 </text><circle vector-effect="non-scaling-stroke" cx="661.8750000000001" cy="331" r="17.75" fill="rgb(57,62,70)"/><circle vector-effect="non-scaling-stroke" cx="581.875" cy="338.00000047683716" r="17.75" fill="rgb(57,62,70)"/><circle vector-effect="non-scaling-stroke" cx="436.5" cy="338.00000047683716" r="17.75" fill="rgb(57,62,70)"/><circle vector-effect="non-scaling-stroke" cx="810.25" cy="331" r="17.75" fill="rgb(57,62,70)"/><circle vector-effect="non-scaling-stroke" cx="523.5" cy="273.00000047683716" r="17.75" fill="rgb(57,62,70)"/><circle vector-effect="non-scaling-stroke" cx="477.75000000000006" cy="411.75" r="17.75" fill="rgb(57,62,70)"/><circle vector-effect="non-scaling-stroke" cx="867.75" cy="382.25" r="17.75" fill="rgb(57,62,70)"/><circle vector-effect="non-scaling-stroke" cx="764.75" cy="382.25" r="17.75" fill="rgb(57,62,70)"/><circle vector-effect="non-scaling-stroke" cx="916.75" cy="461.7500000000001" r="17.75" fill="rgb(57,62,70)"/><circle vector-effect="non-scaling-stroke" cx="832.2500000000001" cy="461.75000000000006" r="17.75" fill="rgb(57,62,70)"/><circle vector-effect="non-scaling-stroke" cx="715.125" cy="461.75000000000006" r="17.75" fill="rgb(57,62,70)"/><circle vector-effect="non-scaling-stroke" cx="533.75" cy="411.75" r="17.75" fill="rgb(57,62,70)"/><text transform="matrix(1,0,0,1,722.625,280.377)" style="font-family:'Open Sans';font-weight:400;font-size:20px;font-style:normal;fill:#ffffff;stroke:none;">10 </text><circle vector-effect="non-scaling-stroke" cx="581.8750000000001" cy="461.75000000000006" r="17.75" fill="rgb(57,62,70)"/><text transform="matrix(1,0,0,1,574.375,470.877)" style="font-family:'Open Sans';font-weight:400;font-size:20px;font-style:normal;fill:#ffffff;stroke:none;">6 </text><text transform="matrix(1,0,0,1,516,282.127)" style="font-family:'Open Sans';font-weight:400;font-size:20px;font-style:normal;fill:#ffffff;stroke:none;">4 </text><text transform="matrix(1,0,0,1,574.375,347.002)" style="font-family:'Open Sans';font-weight:400;font-size:20px;font-style:normal;fill:#ffffff;stroke:none;">7 </text><text transform="matrix(1,0,0,1,654.375,340.127)" style="font-family:'Open Sans';font-weight:400;font-size:20px;font-style:normal;fill:#ffffff;stroke:none;">9 </text><text transform="matrix(1,0,0,1,702.5,470.877)" style="font-family:'Open Sans';font-weight:400;font-size:20px;font-style:normal;fill:#ffffff;stroke:none;">11 </text><text transform="matrix(1,0,0,1,797.625,340.127)" style="font-family:'Open Sans';font-weight:400;font-size:20px;font-style:normal;fill:#ffffff;stroke:none;">13 </text><text transform="matrix(1,0,0,1,753.5,390.877)" style="font-family:'Open Sans';font-weight:400;font-size:20px;font-style:normal;fill:#ffffff;stroke:none;">12 </text><text transform="matrix(1,0,0,1,855.125,392.377)" style="font-family:'Open Sans';font-weight:400;font-size:20px;font-style:normal;fill:#ffffff;stroke:none;">15 </text><text transform="matrix(1,0,0,1,904.125,470.877)" style="font-family:'Open Sans';font-weight:400;font-size:20px;font-style:normal;fill:#ffffff;stroke:none;">16 </text><text transform="matrix(1,0,0,1,819.625,470.877)" style="font-family:'Open Sans';font-weight:400;font-size:20px;font-style:normal;fill:#ffffff;stroke:none;">14 </text><text transform="matrix(1,0,0,1,429,347.252)" style="font-family:'Open Sans';font-weight:400;font-size:20px;font-style:normal;fill:#ffffff;stroke:none;">2 </text><text transform="matrix(1,0,0,1,381.25,416.877)" style="font-family:'Open Sans';font-weight:400;font-size:20px;font-style:normal;fill:#ffffff;stroke:none;">1 </text><text transform="matrix(1,0,0,1,526.25,420.877)" style="font-family:'Open Sans';font-weight:400;font-size:20px;font-style:normal;fill:#ffffff;stroke:none;">5 </text><text transform="matrix(1,0,0,1,470.25,420.877)" style="font-family:'Open Sans';font-weight:400;font-size:20px;font-style:normal;fill:#ffffff;stroke:none;">3 </text></g></svg>