<?xml version="1.0" encoding="UTF-8" standalone="no"?><!-- Generator: Gravit.io --><svg xmlns="http://www.w3.org/2000/svg" xmlns:xlink="http://www.w3.org/1999/xlink" style="isolation:isolate" viewBox="409 -360 301 220" width="301pt" height="220pt"><defs><clipPath id="_clipPath_I4vziI6K9Rl0wK46fltXIjpBD7zyAwfs"><rect x="409" y="-360" width="301" height="220"/></clipPath></defs><g clip-path="url(#_clipPath_I4vziI6K9Rl0wK46fltXIjpBD7zyAwfs)"><line x1="569" y1="-163" x2="447" y2="-300" vector-effect="non-scaling-stroke" stroke-width="2" stroke="rgb(0,173,181)" stroke-linejoin="miter" stroke-linecap="square" stroke-miterlimit="3"/><line x1="640" y1="-319" x2="689" y2="-212" vector-effect="non-scaling-stroke" stroke-width="2" stroke="rgb(0,173,181)" stroke-linejoin="miter" stroke-linecap="square" stroke-miterlimit="3"/><line x1="640" y1="-319" x2="530" y2="-341" vector-effect="non-scaling-stroke" stroke-width="2" stroke="rgb(0,173,181)" stroke-linejoin="miter" stroke-linecap="square" stroke-miterlimit="3"/><line x1="447" y1="-293" x2="693" y2="-222" vector-effect="non-scaling-stroke" stroke-width="2" stroke="rgb(0,173,181)" stroke-linejoin="miter" stroke-linecap="square" stroke-miterlimit="3"/><line x1="640" y1="-319" x2="441" y2="-212" vector-effect="non-scaling-stroke" stroke-width="2" stroke="rgb(0,173,181)" stroke-linejoin="miter" stroke-linecap="square" stroke-miterlimit="3"/><line x1="429" y1="-203" x2="447" y2="-300" vector-effect="non-scaling-stroke" stroke-width="2" stroke="rgb(0,173,181)" stroke-linejoin="miter" stroke-linecap="square" stroke-miterlimit="3"/><line x1="569" y1="-159" x2="533" y2="-328" vector-effect="non-scaling-stroke" stroke-width="2" stroke="rgb(0,173,181)" stroke-linejoin="miter" stroke-linecap="square" stroke-miterlimit="3"/><line x1="689" y1="-208" x2="576" y2="-159" vector-effect="non-scaling-stroke" stroke-width="2" stroke="rgb(0,173,181)" stroke-linejoin="miter" stroke-linecap="square" stroke-miterlimit="3"/><line x1="437" y1="-203" x2="681" y2="-217" vector-effect="non-scaling-stroke" stroke-width="2" stroke="rgb(0,173,181)" stroke-linejoin="miter" stroke-linecap="square" stroke-miterlimit="3"/><line x1="530" y1="-341" x2="447" y2="-300" vector-effect="non-scaling-stroke" stroke-width="2" stroke="rgb(0,173,181)" stroke-linejoin="miter" stroke-linecap="square" stroke-miterlimit="3"/><circle vector-effect="non-scaling-stroke" cx="530" cy="-340.00000000000006" r="20.000000000000085" fill="rgb(57,62,70)"/><text transform="matrix(1,0,0,1,523,-333.164)" style="font-family:'Roboto';font-weight:400;font-size:20px;font-style:normal;fill:#ffffff;stroke:none;">1</text><circle vector-effect="non-scaling-stroke" cx="570.0000000000002" cy="-159.99999999999991" r="20.000000000000114" fill="rgb(57,62,70)"/><circle vector-effect="non-scaling-stroke" cx="428.99999999999994" cy="-200.00000000000003" r="20.000000000000057" fill="rgb(57,62,70)"/><circle vector-effect="non-scaling-stroke" cx="689.9999999999998" cy="-210.0000000000001" r="20.000000000000114" fill="rgb(57,62,70)"/><circle vector-effect="non-scaling-stroke" cx="449" cy="-300.93470371729416" r="20.000000000000057" fill="rgb(57,62,70)"/><circle vector-effect="non-scaling-stroke" cx="639.9999999999999" cy="-320" r="20.000000000000114" fill="rgb(57,62,70)"/><text transform="matrix(1,0,0,1,682,-202.136)" style="font-family:'Roboto';font-weight:400;font-size:20px;font-style:normal;fill:#ffffff;stroke:none;">3</text><text transform="matrix(1,0,0,1,562.5,-154.945)" style="font-family:'Roboto';font-weight:400;font-size:20px;font-style:normal;fill:#ffffff;stroke:none;">4</text><text transform="matrix(1,0,0,1,421.25,-192.445)" style="font-family:'Roboto';font-weight:400;font-size:20px;font-style:normal;fill:#ffffff;stroke:none;">5</text><text transform="matrix(1,0,0,1,442,-292.38)" style="font-family:'Roboto';font-weight:400;font-size:20px;font-style:normal;fill:#ffffff;stroke:none;">6</text><text transform="matrix(1,0,0,1,632.075,-313.086)" style="font-family:'Roboto';font-weight:400;font-size:20px;font-style:normal;fill:#ffffff;stroke:none;">2</text><text transform="matrix(0.903,-0.429,0.429,0.903,466.386,-316.863)" style="font-family:'Roboto';font-weight:400;font-size:12px;font-style:normal;fill:#000000;stroke:none;">4 </text><text transform="matrix(0.985,0.173,-0.173,0.985,553.11,-342.816)" style="font-family:'Roboto';font-weight:400;font-size:12px;font-style:normal;fill:#000000;stroke:none;">5 </text><text transform="matrix(0.993,0.118,-0.118,0.993,471.852,-293.565)" style="font-family:'Roboto';font-weight:400;font-size:12px;font-style:normal;fill:#000000;stroke:none;">3 </text><text transform="matrix(0.971,0.239,-0.239,0.971,656.637,-237.899)" style="font-family:'Roboto';font-weight:400;font-size:12px;font-style:normal;fill:#000000;stroke:none;">3 </text><text transform="matrix(0.996,-0.086,0.086,0.996,590.962,-171.458)" style="font-family:'Roboto';font-weight:400;font-size:12px;font-style:normal;fill:#000000;stroke:none;">3 </text><text transform="matrix(0.999,0.047,-0.047,0.999,455.441,-269.586)" style="font-family:'Roboto';font-weight:400;font-size:12px;font-style:normal;fill:#000000;stroke:none;">2 </text><text transform="matrix(0.999,-0.05,0.05,0.999,450.688,-191.332)" style="font-family:'Roboto';font-weight:400;font-size:12px;font-style:normal;fill:#000000;stroke:none;">2 </text><text transform="matrix(0.988,0.157,-0.157,0.988,427.402,-269.94)" style="font-family:'Roboto';font-weight:400;font-size:12px;font-style:normal;fill:#000000;stroke:none;">2 </text><text transform="matrix(1,0.014,-0.014,1,442.95,-224.226)" style="font-family:'Roboto';font-weight:400;font-size:12px;font-style:normal;fill:#000000;stroke:none;">3 </text><text transform="matrix(0.952,-0.305,0.305,0.952,655.391,-291.178)" style="font-family:'Roboto';font-weight:400;font-size:12px;font-style:normal;fill:#000000;stroke:none;">4 </text><text transform="matrix(0.992,-0.124,0.124,0.992,538.613,-309.022)" style="font-family:'Roboto';font-weight:400;font-size:12px;font-style:normal;fill:#000000;stroke:none;">2 </text></g></svg>