<?xml version="1.0" encoding="UTF-8" standalone="no"?><!-- Generator: Gravit.io --><svg xmlns="http://www.w3.org/2000/svg" xmlns:xlink="http://www.w3.org/1999/xlink" style="isolation:isolate" viewBox="416 -360 284 213.5" width="284pt" height="213.5pt"><defs><clipPath id="_clipPath_4RAJ5SBxuKD59pSKUFX6v5BnX2N2s4FQ"><rect x="416" y="-360" width="284" height="213.5"/></clipPath></defs><g clip-path="url(#_clipPath_4RAJ5SBxuKD59pSKUFX6v5BnX2N2s4FQ)"><line x1="497" y1="-163" x2="436" y2="-228" vector-effect="non-scaling-stroke" stroke-width="2" stroke="rgb(0,173,181)" stroke-linejoin="miter" stroke-linecap="square" stroke-miterlimit="3"/><line x1="439" y1="-228" x2="529" y2="-339" vector-effect="non-scaling-stroke" stroke-width="2" stroke="rgb(0,173,181)" stroke-linejoin="miter" stroke-linecap="square" stroke-miterlimit="3"/><line x1="679" y1="-257" x2="447" y2="-300" vector-effect="non-scaling-stroke" stroke-width="2" stroke="rgb(0,173,181)" stroke-linejoin="miter" stroke-linecap="square" stroke-miterlimit="3"/><line x1="683" y1="-257" x2="623" y2="-167" vector-effect="non-scaling-stroke" stroke-width="2" stroke="rgb(0,173,181)" stroke-linejoin="miter" stroke-linecap="square" stroke-miterlimit="3"/><line x1="529" y1="-339" x2="619" y2="-173" vector-effect="non-scaling-stroke" stroke-width="2" stroke="rgb(0,173,181)" stroke-linejoin="miter" stroke-linecap="square" stroke-miterlimit="3"/><line x1="679" y1="-257" x2="631" y2="-320.935" vector-effect="non-scaling-stroke" stroke-width="2" stroke="rgb(0,173,181)" stroke-linejoin="miter" stroke-linecap="square" stroke-miterlimit="3"/><circle vector-effect="non-scaling-stroke" cx="530" cy="-340.00000000000006" r="20.000000000000085" fill="rgb(57,62,70)"/><text transform="matrix(1,0,0,1,523,-333.164)" style="font-family:'Roboto';font-weight:400;font-size:20px;font-style:normal;fill:#ffffff;stroke:none;">1</text><circle vector-effect="non-scaling-stroke" cx="622.6060568360257" cy="-169.99999999999997" r="20.000000000000114" fill="rgb(57,62,70)"/><circle vector-effect="non-scaling-stroke" cx="498" cy="-166.49999999999997" r="20.000000000000085" fill="rgb(57,62,70)"/><circle vector-effect="non-scaling-stroke" cx="680.0000000000001" cy="-256.99999999999994" r="20.000000000000114" fill="rgb(57,62,70)"/><circle vector-effect="non-scaling-stroke" cx="449" cy="-300.93470371729416" r="20.000000000000057" fill="rgb(57,62,70)"/><circle vector-effect="non-scaling-stroke" cx="435.99999999999983" cy="-230.00000000000017" r="20.000000000000057" fill="rgb(57,62,70)"/><circle vector-effect="non-scaling-stroke" cx="627.9253420655218" cy="-320.9347037172942" r="20.000000000000114" fill="rgb(57,62,70)"/><text transform="matrix(1,0,0,1,672,-249.136)" style="font-family:'Roboto';font-weight:400;font-size:20px;font-style:normal;fill:#ffffff;stroke:none;">3</text><text transform="matrix(1,0,0,1,615.106,-164.945)" style="font-family:'Roboto';font-weight:400;font-size:20px;font-style:normal;fill:#ffffff;stroke:none;">4</text><text transform="matrix(1,0,0,1,490.25,-158.945)" style="font-family:'Roboto';font-weight:400;font-size:20px;font-style:normal;fill:#ffffff;stroke:none;">5</text><text transform="matrix(1,0,0,1,442,-292.38)" style="font-family:'Roboto';font-weight:400;font-size:20px;font-style:normal;fill:#ffffff;stroke:none;">7</text><text transform="matrix(1,0,0,1,429.75,-222.136)" style="font-family:'Roboto';font-weight:400;font-size:20px;font-style:normal;fill:#ffffff;stroke:none;">6</text><text transform="matrix(1,0,0,1,620,-314.021)" style="font-family:'Roboto';font-weight:400;font-size:20px;font-style:normal;fill:#ffffff;stroke:none;">2</text></g></svg>