<?xml version="1.0" encoding="utf-8"?>
<!-- Generator: Adobe Illustrator 24.1.1, SVG Export Plug-In . SVG Version: 6.00 Build 0)  -->
<svg version="1.1" id="Layer_1" focusable="false" xmlns="http://www.w3.org/2000/svg" xmlns:xlink="http://www.w3.org/1999/xlink"
	 x="0px" y="0px" viewBox="0 0 512 512" style="enable-background:new 0 0 512 512;" xml:space="preserve">
<style type="text/css">
	.st0{fill:#FFFFFF;}
</style>
<path d="M256,8C119,8,8,119,8,256s111,248,248,248s248-111,248-248S393,8,256,8z M124,296c-6.6,0-12-5.4-12-12v-56
	c0-6.6,5.4-12,12-12h264c6.6,0,12,5.4,12,12v56c0,6.6-5.4,12-12,12H124z"/>
<path class="st0" d="M400,284v-56c0-6.6-5.4-12-12-12H124c-6.6,0-12,5.4-12,12v56c0,6.6,5.4,12,12,12h264
	C394.6,296,400,290.6,400,284z"/>
</svg>
