<?xml version="1.0" encoding="utf-8"?>
<!-- Generator: Adobe Illustrator 24.1.1, SVG Export Plug-In . SVG Version: 6.00 Build 0)  -->
<svg version="1.1" id="Layer_1" focusable="false" xmlns="http://www.w3.org/2000/svg" xmlns:xlink="http://www.w3.org/1999/xlink"
	 x="0px" y="0px" viewBox="0 0 512 512" style="enable-background:new 0 0 512 512;" xml:space="preserve">
<style type="text/css">
	.st0{fill:#FFFFFF;stroke:#000000;stroke-miterlimit:10;}
</style>
<rect x="97" y="88" class="st0" width="324.5" height="324.5"/>
<path d="M256,8C119,8,8,119,8,256s111,248,248,248s248-111,248-248S393,8,256,8z M400,284c0,6.6-5.4,12-12,12h-92v92
	c0,6.6-5.4,12-12,12h-56c-6.6,0-12-5.4-12-12v-92h-92c-6.6,0-12-5.4-12-12v-56c0-6.6,5.4-12,12-12h92v-92c0-6.6,5.4-12,12-12h56
	c6.6,0,12,5.4,12,12v92h92c6.6,0,12,5.4,12,12V284z"/>
</svg>
